# xmcd
#
# Track frame offsets:
#	150
#	14332
#	28971
#	43147
#	55760
#	66294
#	84024
#	105131
#	115964
#	134669
#	146788
#	164260
#	178067
#	189844
#	203805
#	222191
#	235531
#	246168
#
# Disc length: 3436 seconds
# Revision: 1
# Processed by: cddbd v1.5.2PL0 Copyright (c) Steve Scherf et al.
# Submitted via: dBpowerAMP V12.0
#
DISCID=f80d6a12
DTITLE=Hank Williams - Hank Williams: The Unreleased Recordings [Time-Life 2008], Disc 2 of 3
DYEAR=1951
DGENRE=Country
TTITLE0=I Can't Help It (If I'm Still in Love with You) [Williams 1951]
TTITLE1=Seaman's Blues [Tubb 1947]
TTITLE2=The Prodigal Son [Rose (Jenkins)]
TTITLE3=Cherokee Boogie (Eh-Oh-Aleena) [1950]
TTITLE4=Where He Leads Me {Tune: I can hear my savior calling} [1890]
TTITLE5=From Jerusalem to Jericho [Robison]
TTITLE6=Cool Water [Nolan 1936]
TTITLE7=I've Got My One-Way Ticket to the Sky [Bailes]
TTITLE8=Searching for a Soldier's Grave [Acuff 1945]
TTITLE9=California Zephyr [Williams 1951]
TTITLE10=Softly and Tenderly Jesus Is Calling [Thompson 1880]
TTITLE11=Just When I Needed You [1949]
TTITLE12=Gathering Flowers for the Master's Bouquet [Baumgardner 1940]
TTITLE13=Why Should We Try Anymore [Williams 1950]
TTITLE14=The Old Country Church
TTITLE15=May You Never Be Alone [Williams 1949]
TTITLE16=When the Fire Comes Down From Heaven
TTITLE17=Lonely Tombs [Golden]
EXTD=
EXTT0=
EXTT1=
EXTT2=
EXTT3=
EXTT4=
EXTT5=
EXTT6=
EXTT7=
EXTT8=
EXTT9=
EXTT10=
EXTT11=
EXTT12=
EXTT13=
EXTT14=
EXTT15=
EXTT16=
EXTT17=
PLAYORDER=
